<?xml version="1.0" encoding="utf-8"?>
<!-- Generator: Adobe Illustrator 22.0.1, SVG Export Plug-In . SVG Version: 6.00 Build 0)  -->
<svg version="1.1" id="Layer_1" xmlns="http://www.w3.org/2000/svg" xmlns:xlink="http://www.w3.org/1999/xlink" x="0px" y="0px"
	 viewBox="0 0 336.3 317.7" style="enable-background:new 0 0 336.3 317.7;" xml:space="preserve">
<style type="text/css">
	.st0{fill:#DA5B71;}
	.st1{fill:none;stroke:#FFFFFF;stroke-width:4;stroke-miterlimit:10;}
	.st2{fill:#F8E4BE;}
	.st3{font-family:'Allerta-Stencil';}
	.st4{font-size:66px;}
	.st5{fill:#DA5B71;stroke:#FFFFFF;stroke-width:4;stroke-miterlimit:10;}
	.st6{font-family:'Impact';}
	.st7{font-size:67.2px;}
	.st8{fill:#E0A1AC;}
</style>
<g>
	<g>
		<g>
			<path class="st0" d="M330.7,164.3c0.4,2.2-1,3.9-3.2,3.9H8.3c-2.2,0-3.6-1.8-3.2-3.9l8.4-40.6c0.4-2.2,0.4-5.7,0-7.8L5.1,75.3
				c-0.4-2.2,1-3.9,3.2-3.9h319.2c2.2,0,3.7,1.8,3.2,3.9l-8.1,41c-0.4,2.2-0.4,5.7,0,7.8L330.7,164.3z"/>
			<path class="st1" d="M330.7,164.3c0.4,2.2-1,3.9-3.2,3.9H8.3c-2.2,0-3.6-1.8-3.2-3.9l8.4-40.6c0.4-2.2,0.4-5.7,0-7.8L5.1,75.3
				c-0.4-2.2,1-3.9,3.2-3.9h319.2c2.2,0,3.7,1.8,3.2,3.9l-8.1,41c-0.4,2.2-0.4,5.7,0,7.8L330.7,164.3z"/>
		</g>
		<text transform="matrix(1 0 0 1 11.0523 146.1865)" class="st2 st3 st4">WEBBY D</text>
	</g>
	<g>
		<path class="st5" d="M289,68c-1.2,2.4-4.3,3.8-6.9,3.2H53.5c-2.6,0.6-5.7-0.8-6.9-3.2L32.9,41c-1.2-2.4-0.1-4.8,2.5-5.4
			c88.5-41.6,176.8-41.8,265,0c2.6,0.6,3.7,3,2.5,5.4L289,68z"/>
		<g>
			<g>
				<path class="st2" d="M62.2,49.8C62.2,49.8,62.1,49.8,62.2,49.8c0.4,4.2,0.9,8.3,1.4,12.5c-1,0.4-1.9,0.9-2.9,1.4
					c-4.2-4.3-8.5-8.5-12.9-12.6c1.2-0.6,2.4-1.2,3.6-1.8c2.9,3,5.7,6.1,8.4,9.2c0,0,0,0,0.1,0c-0.5-4.2-0.8-8.4-1.2-12.6
					c0.8-0.4,1.7-0.8,2.5-1.1c2.9,3.1,5.8,6.2,8.6,9.3c0,0,0,0,0.1,0c-0.5-4.1-0.9-8.2-1.3-12.4c1.2-0.5,2.5-1,3.8-1.5
					c0.2,6,0.5,12,0.9,18c-1,0.4-2,0.8-2.9,1.2C67.8,56,65,52.9,62.2,49.8z"/>
				<path class="st2" d="M81.7,47c0.5,1.3,1.2,2.1,2.2,2.5c1,0.4,2,0.4,3.2,0c1.4-0.5,2.4-1.4,3.2-2.8c1,0.4,2.1,0.8,3.1,1.2
					c-1.2,2.3-2.9,3.8-5.2,4.6c-0.9,0.3-1.8,0.5-2.7,0.5c-0.5,0-0.9,0-1.4-0.1c-0.5,0-1-0.1-1.4-0.3c-0.9-0.3-1.8-1-2.7-1.9
					c-0.9-0.8-1.6-2.1-2.2-3.7c-0.6-1.6-0.9-3-0.8-4.2c0-1.2,0.3-2.3,0.8-3.1c0.5-0.9,1.1-1.6,1.9-2.2c0.8-0.6,1.6-1,2.4-1.3
					c2.1-0.7,4-0.6,5.8,0.1c1.8,0.8,3.1,2.2,3.8,4.4c0.3,0.9,0.6,1.8,0.8,2.7C88.9,44.5,85.3,45.7,81.7,47z M88.1,41.8
					c-0.5-1.2-1.1-2.1-2-2.5c-0.9-0.4-1.9-0.4-2.9,0c-1.1,0.4-1.8,1-2.3,1.8c-0.4,0.9-0.5,2-0.1,3.2C83.2,43.4,85.6,42.6,88.1,41.8z
					"/>
				<path class="st2" d="M92,26.1c1.2-0.4,2.5-0.7,3.7-1.1c0.8,2.8,1.5,5.6,2.3,8.4c0.5-0.8,1.1-1.4,1.8-2c0.6-0.5,1.4-0.9,2.4-1.2
					c2.2-0.5,4.1-0.2,5.4,1c0.6,0.4,1.1,1,1.5,1.8c0.4,0.8,0.8,2.2,1.2,4.2c0.5,2,0.7,3.4,0.7,4.3c0,0.9-0.1,1.7-0.5,2.4
					c-0.3,0.8-0.8,1.4-1.5,2c-0.7,0.6-1.5,1-2.6,1.3c-1.8,0.4-3.4,0.2-4.9-0.7c0.2,0.6,0.3,1.1,0.5,1.7c-1.1,0.3-2.3,0.6-3.4,1
					C96.5,41.4,94.2,33.7,92,26.1z M102,33.8c-0.8,0.2-1.4,0.5-1.8,1c-0.4,0.4-0.7,0.9-0.8,1.5c-0.1,0.6-0.1,1.1,0,1.7
					c0.1,0.6,0.2,1.2,0.4,1.9c0.2,0.6,0.4,1.2,0.6,1.7c0.2,0.6,0.5,1.1,0.9,1.6c0.4,0.4,0.8,0.7,1.4,0.9c0.5,0.2,1.2,0.2,2,0
					c0.8-0.2,1.4-0.5,1.8-0.9c0.4-0.4,0.6-0.9,0.7-1.4c0.1-0.6,0.1-1.2,0-1.8c-0.1-0.6-0.3-1.2-0.4-1.8c-0.2-0.7-0.3-1.3-0.5-1.9
					c-0.2-0.6-0.5-1.1-0.9-1.5c-0.3-0.4-0.8-0.8-1.4-0.9C103.5,33.5,102.8,33.5,102,33.8z"/>
				<path class="st2" d="M135.2,39.5c-1,1.4-2.4,2.3-4.2,2.6c-1,0.1-2,0.1-2.8-0.2c-0.8-0.3-1.6-0.7-2.2-1.2c-0.6-0.4-1-1.1-1.3-2
					c-0.3-0.8-0.7-2.2-1-4.2c-0.4-2-0.5-3.5-0.5-4.4c0-0.9,0.2-1.6,0.6-2.3c0.8-1.6,2.3-2.6,4.6-3c0.9-0.1,1.9-0.1,2.7,0.1
					c0.8,0.3,1.6,0.7,2.3,1.2c-0.4-2.9-0.8-5.7-1.2-8.6c1.3-0.2,2.5-0.3,3.8-0.5c0.9,7.9,1.9,15.8,2.8,23.8
					c-1.2,0.1-2.3,0.3-3.5,0.4C135.4,40.6,135.3,40.1,135.2,39.5z M130,28c-0.9,0.1-1.5,0.4-1.9,0.7c-0.5,0.4-0.8,0.8-0.9,1.4
					c-0.1,0.5-0.2,1.1-0.2,1.7c0,0.7,0.1,1.3,0.2,2c0.1,0.6,0.2,1.3,0.4,1.9c0.2,0.6,0.4,1.2,0.7,1.7c0.3,0.5,0.7,0.8,1.3,1
					c0.5,0.2,1.1,0.3,2,0.2c0.8-0.1,1.5-0.4,1.9-0.8c0.4-0.4,0.7-0.8,0.8-1.4c0.2-0.5,0.2-1.1,0.2-1.8c-0.1-0.6-0.1-1.2-0.2-1.8
					c-0.1-0.7-0.2-1.3-0.3-1.9c-0.2-0.6-0.4-1.1-0.7-1.6c-0.3-0.5-0.7-0.9-1.2-1.1C131.6,28,130.9,27.9,130,28z"/>
				<path class="st2" d="M145.4,32.8c0.1,1.4,0.6,2.4,1.5,3c0.8,0.7,1.8,0.9,3.1,0.8c1.4-0.1,2.7-0.7,3.8-1.9c0.9,0.7,1.8,1.3,2.7,2
					c-1.7,1.9-3.7,3-6.1,3.1c-0.9,0.1-1.8,0-2.7-0.2c-0.4-0.1-0.9-0.3-1.3-0.5c-0.5-0.2-0.9-0.4-1.3-0.7c-0.8-0.6-1.5-1.4-2.1-2.5
					c-0.6-1-1-2.4-1.2-4.2c-0.2-1.7-0.1-3.1,0.2-4.2c0.3-1.2,0.8-2.1,1.5-2.9c0.7-0.7,1.5-1.3,2.3-1.7c0.9-0.4,1.8-0.6,2.7-0.7
					c2.1-0.1,4,0.4,5.5,1.6c1.6,1.2,2.4,2.9,2.5,5.2c0,0.9,0.1,1.9,0.1,2.8C152.9,32.3,149.2,32.5,145.4,32.8z M152.8,29.5
					c-0.1-1.3-0.6-2.3-1.3-2.9c-0.8-0.6-1.7-0.9-2.8-0.8c-1.1,0.1-2,0.5-2.7,1.2c-0.6,0.7-0.9,1.8-0.9,3.1
					C147.7,29.8,150.3,29.6,152.8,29.5z"/>
				<path class="st2" d="M158,22.2c1.3-0.1,2.6-0.1,4-0.1c1.6,3.9,3,7.9,4.5,11.9c0,0,0,0,0.1,0c1.4-4,2.8-8,4.3-11.9
					c1.3,0,2.7,0,4,0.1c-2.4,5.6-4.7,11.3-6.8,17c-1,0-1.9,0-2.9,0C162.9,33.4,160.5,27.8,158,22.2z"/>
				<path class="st2" d="M179.9,32.1c-0.1,1.4,0.3,2.4,1.1,3.2c0.7,0.8,1.7,1.2,2.9,1.2c1.4,0.1,2.8-0.4,4-1.4
					c0.8,0.8,1.6,1.5,2.4,2.3c-2,1.7-4.1,2.4-6.5,2.3c-0.9-0.1-1.8-0.2-2.7-0.5c-0.4-0.2-0.8-0.4-1.3-0.6c-0.4-0.2-0.8-0.5-1.2-0.8
					c-0.7-0.7-1.3-1.6-1.7-2.7c-0.5-1.1-0.7-2.5-0.6-4.3c0.1-1.7,0.3-3.1,0.8-4.2c0.5-1.1,1.1-2,1.9-2.6c0.8-0.6,1.6-1.1,2.5-1.3
					c0.9-0.3,1.8-0.3,2.7-0.3c2.1,0.1,3.9,0.9,5.2,2.3c1.4,1.4,2,3.2,1.8,5.5c-0.1,0.9-0.2,1.9-0.2,2.8
					C187.4,32.5,183.7,32.2,179.9,32.1z M187.7,29.7c0.1-1.3-0.3-2.4-0.9-3.1c-0.7-0.7-1.6-1.1-2.7-1.1c-1.1-0.1-2,0.2-2.8,0.8
					c-0.7,0.6-1.2,1.6-1.3,3C182.6,29.4,185.2,29.5,187.7,29.7z"/>
				<path class="st2" d="M197.2,16.6c1.3,0.1,2.5,0.3,3.8,0.4c-0.8,6.5-1.6,12.9-2.3,19.4c-0.1,0.8,0.3,1.2,1.2,1.3
					c0.4,0.1,0.8,0.1,1.2,0.2c-0.1,1.1-0.3,2.1-0.4,3.2c-0.5-0.1-1-0.1-1.6-0.2c-1.3-0.2-2.3-0.6-3-1.3c-0.8-0.7-1.1-1.8-1-3.3
					C195.8,29.7,196.5,23.2,197.2,16.6z"/>
				<path class="st2" d="M204.1,33c0.2-1.8,0.6-3.1,1-4c0.5-0.9,1.1-1.6,1.9-2.1c0.6-0.5,1.4-0.9,2.4-1.2c1-0.3,2.2-0.3,3.6-0.1
					c1.5,0.3,2.6,0.7,3.4,1.3c0.8,0.6,1.4,1.2,1.8,1.9c0.6,0.8,1,1.7,1.1,2.6c0.1,1,0,2.4-0.4,4.1c-0.4,1.8-0.8,3.1-1.2,3.9
					c-0.5,0.9-1.1,1.6-1.9,2.1c-0.3,0.2-0.6,0.4-1,0.6c-0.3,0.2-0.8,0.4-1.2,0.5c-0.9,0.3-2.1,0.4-3.4,0.1c-1.3-0.2-2.4-0.7-3.1-1.3
					c-0.8-0.6-1.4-1.1-1.8-1.7c-0.5-0.8-0.9-1.7-1.1-2.6C203.9,36.1,203.9,34.7,204.1,33z M215.3,34.8c0.2-1.2,0.3-2.1,0.3-2.7
					c0-0.6-0.2-1.1-0.5-1.5c-0.2-0.4-0.5-0.8-1-1.1c-0.5-0.3-1-0.5-1.7-0.6c-0.6-0.1-1.2-0.1-1.8,0.1c-0.5,0.1-1,0.4-1.4,0.7
					c-0.4,0.4-0.7,0.8-0.9,1.3c-0.2,0.5-0.4,1.4-0.6,2.6c-0.2,1.2-0.2,2-0.2,2.6c0.1,0.6,0.2,1.1,0.4,1.6c0.3,0.4,0.6,0.7,1,1.1
					c0.5,0.3,1,0.5,1.6,0.6c0.6,0.1,1.2,0.1,1.8-0.1c0.6-0.2,1-0.4,1.3-0.7c0.4-0.4,0.7-0.8,1-1.3C214.9,36.8,215.1,35.9,215.3,34.8
					z"/>
				<path class="st2" d="M225,28.1c1.2,0.3,2.5,0.5,3.7,0.8c-0.1,0.6-0.3,1.2-0.4,1.7c1.5-1,3.2-1.2,5.2-0.8
					c2.2,0.6,3.7,1.8,4.3,3.4c0.4,0.7,0.5,1.4,0.5,2.3c-0.1,0.9-0.4,2.3-0.9,4.3c-0.5,1.9-1,3.3-1.4,4.1c-0.4,0.8-0.9,1.4-1.5,1.8
					c-0.6,0.5-1.4,0.8-2.3,1c-0.9,0.2-1.8,0.2-2.9-0.1c-0.9-0.2-1.6-0.6-2.2-1.1c-0.7-0.5-1.2-1.1-1.7-1.9c-0.7,2.8-1.3,5.7-2,8.5
					c-1.1-0.3-2.2-0.5-3.3-0.8C221.6,43.6,223.3,35.8,225,28.1z M229,43.2c0.8,0.2,1.5,0.2,2.1,0c0.6-0.2,1-0.5,1.3-0.9
					c0.4-0.4,0.6-1,0.9-1.5c0.2-0.6,0.3-1.2,0.5-1.8c0.2-0.7,0.3-1.3,0.5-1.9c0.1-0.6,0.1-1.2,0-1.8c-0.1-0.6-0.3-1-0.7-1.5
					c-0.4-0.4-1.1-0.7-1.9-0.9c-0.8-0.2-1.5-0.2-2,0c-0.6,0.2-1,0.5-1.4,1c-0.3,0.5-0.6,1-0.8,1.5c-0.2,0.6-0.4,1.2-0.5,1.9
					c-0.1,0.6-0.2,1.2-0.3,1.8c-0.1,0.6-0.1,1.2,0,1.8c0.1,0.6,0.4,1,0.8,1.5C227.6,42.7,228.2,43,229,43.2z"/>
				<path class="st2" d="M244.1,43.2c-0.4,1.3-0.3,2.4,0.3,3.4c0.5,0.9,1.4,1.6,2.6,2c1.4,0.5,2.8,0.3,4.3-0.3
					c0.6,1,1.2,1.9,1.8,2.9c-2.3,1.1-4.6,1.3-6.9,0.5c-0.9-0.3-1.7-0.7-2.5-1.2c-0.4-0.3-0.7-0.6-1.1-0.9c-0.4-0.3-0.7-0.7-1-1.1
					c-0.5-0.8-0.9-1.8-1-3.1c-0.2-1.2,0-2.6,0.5-4.3c0.5-1.6,1.1-2.9,1.8-3.8c0.8-1,1.6-1.6,2.5-2.1c0.9-0.4,1.9-0.6,2.8-0.6
					c1,0,1.9,0.1,2.7,0.4c2,0.7,3.6,1.9,4.6,3.6c1,1.7,1.1,3.6,0.4,5.7c-0.3,0.9-0.6,1.8-1,2.7C251.3,45.5,247.7,44.3,244.1,43.2z
					 M252.3,42.9c0.4-1.3,0.3-2.4-0.1-3.2c-0.5-0.8-1.3-1.4-2.3-1.8c-1.1-0.3-2.1-0.3-2.9,0.1c-0.9,0.4-1.5,1.3-2,2.5
					C247.4,41.3,249.8,42.1,252.3,42.9z"/>
				<path class="st2" d="M262.5,39.1c1.2,0.4,2.4,0.9,3.6,1.4c-0.2,0.6-0.4,1.1-0.7,1.7c0,0,0,0,0.1,0c1.7-0.8,3.4-0.8,5.3,0
					c1.4,0.6,2.5,1.5,3.2,2.8c-1.2,0.5-2.5,1.1-3.7,1.6c-0.5-0.8-1.2-1.4-2-1.7c-0.9-0.4-1.8-0.4-2.6-0.1c-0.9,0.2-1.6,0.9-2.1,2.1
					c-1.3,3.2-2.5,6.4-3.8,9.6c-1.1-0.4-2.2-0.9-3.3-1.3C258.5,49.8,260.5,44.4,262.5,39.1z"/>
				<path class="st2" d="M272.1,55.9c0.8,1.9,2.2,3.4,4.3,4.4c0.9,0.4,1.8,0.6,2.6,0.6c0.8-0.1,1.3-0.4,1.6-1c0.3-0.5,0.3-1,0-1.4
					c-0.3-0.4-0.7-0.8-1.3-1.1c-0.9-0.6-1.9-1.1-2.8-1.6c-1.3-0.8-2.3-1.7-2.8-2.9c-0.6-1.1-0.6-2.4,0-3.7c0.7-1.6,1.9-2.5,3.5-2.8
					c1.6-0.3,3.3,0,5.1,0.9c0.8,0.4,1.5,0.8,2.1,1.2c0.6,0.4,1.1,0.8,1.6,1.3c0.9,0.9,1.6,1.9,2.1,3c-1.1,0.4-2.1,0.8-3.2,1.2
					c-0.4-0.7-1-1.4-1.6-2.1c-0.6-0.6-1.4-1.1-2.3-1.6c-1.1-0.5-1.9-0.7-2.5-0.5c-0.6,0.1-1,0.5-1.3,1c-0.2,0.3-0.2,0.7,0.1,1.1
					c0.2,0.4,0.7,0.9,1.5,1.4c0.9,0.5,1.8,1,2.7,1.5c1.7,1,2.7,2.1,3.1,3.3c0.3,1.2,0.1,2.4-0.5,3.7c-0.8,1.5-2,2.3-3.6,2.4
					c-1.7,0.2-3.4-0.2-5.4-1c-2.6-1.2-4.6-3.2-5.9-6C269.9,56.6,271,56.2,272.1,55.9z"/>
			</g>
		</g>
	</g>
	<g>
		<g>
			<path class="st0" d="M291.7,168.2c1.6,0,3,1.3,3,3V250c0,1.6-1.4,3-3,3h-12.9c-1.6,0-4.2,0.6-5.6,1.4L171,309.2
				c-1.5,0.8-3.8,0.8-5.3,0L63.5,254.4c-1.5-0.8-4-1.4-5.6-1.4h-13c-1.7,0-3-1.4-3-3v-78.8c0-1.7,1.3-3,3-3H291.7z"/>
			<path class="st1" d="M291.7,168.2c1.6,0,3,1.3,3,3V250c0,1.6-1.4,3-3,3h-12.9c-1.6,0-4.2,0.6-5.6,1.4L171,309.2
				c-1.5,0.8-3.8,0.8-5.3,0L63.5,254.4c-1.5-0.8-4-1.4-5.6-1.4h-13c-1.7,0-3-1.4-3-3v-78.8c0-1.7,1.3-3,3-3H291.7z"/>
		</g>
		<g>
			<text transform="matrix(1 0 0 1 120.2496 251.3809)" class="st2 st6 st7">&lt;/&gt;</text>
			<g>
				<g>
					<circle class="st8" cx="66.7" cy="223.8" r="3.6"/>
					<circle class="st8" cx="100.3" cy="223.8" r="3.6"/>
				</g>
				<g>
					<circle class="st8" cx="269.9" cy="223.8" r="3.6"/>
					<circle class="st8" cx="239.5" cy="223.8" r="3.6"/>
				</g>
			</g>
		</g>
	</g>
</g>
</svg>
