<?xml version="1.0" encoding="utf-8"?>
<!-- Generator: Adobe Illustrator 22.0.1, SVG Export Plug-In . SVG Version: 6.00 Build 0)  -->
<svg version="1.1" id="Capa_1" xmlns="http://www.w3.org/2000/svg" xmlns:xlink="http://www.w3.org/1999/xlink" x="0px" y="0px"
	 viewBox="0 0 131 132.3" style="enable-background:new 0 0 131 132.3;" xml:space="preserve">
<style type="text/css">
	.st0{display:none;}
	.st1{display:inline;fill:#57555C;}
	.st2{display:inline;fill:#3C3A41;}
	.st3{display:inline;fill:#787780;}
	.st4{display:inline;fill:#A7E5F9;}
	.st5{display:inline;fill:#84DBFF;}
	.st6{display:inline;}
	.st7{fill:#E0A1AC;}
	.st8{display:inline;fill:#DA5B71;}
	.st9{display:inline;fill:#F8E4BE;}
	.st10{display:inline;fill:#F2E7DA;}
	.st11{display:inline;fill:#F2FBFD;}
	.st12{fill:#DA5B71;}
	.st13{fill:#F2FBFD;}
	.st14{opacity:0.2;fill:#334A5E;enable-background:new    ;}
	.st15{fill:#57555C;}
	.st16{fill:#A7E5F9;}
	.st17{fill:#84DBFF;}
	.st18{display:inline;fill:#FAFAFA;}
	.st19{display:inline;fill:#FF6469;}
	.st20{display:inline;fill:#FFE169;}
	.st21{display:inline;fill:#87E1AA;}
	.st22{fill:#E4EAF6;}
	.st23{fill:#F8E4BE;}
	.st24{fill:#DEE3ED;}
	.st25{display:inline;fill:#DEE3ED;}
	.st26{fill:#FAFAFA;}
	.st27{display:inline;opacity:0.75;fill:#DA5B71;}
	.st28{opacity:0.75;fill:#F8E4BE;}
	.st29{opacity:0.75;fill:#84DBFF;}
</style>
<g class="st0">
	<path class="st1" d="M73.1,91.8h-23c-1.6,0-3.1,1.1-3.5,2.6l-7.5,22.5c-0.8,2.4,1,4.9,3.5,4.9h30.5c2.1,0,3.8-1.6,3.8-3.8V95.6
		C76.8,93.5,75.2,91.8,73.1,91.8z"/>
	<path class="st2" d="M76.8,95.6v22.5c0,2.1-1.6,3.8-3.8,3.8H61.6v-30h11.5C75.2,91.8,76.8,93.5,76.8,95.6z"/>
	<path class="st3" d="M76.8,118.1c0,2.1-1.6,3.8-3.8,3.8H27.6c-2.1,0-3.8-1.6-3.8-3.8s1.6-3.8,3.8-3.8h45.5
		C75.2,114.3,76.8,116,76.8,118.1z"/>
	<path class="st1" d="M76.8,118.1c0,2.1-1.6,3.8-3.8,3.8H61.6v-7.5h11.5C75.2,114.3,76.8,116,76.8,118.1z"/>
	<path class="st4" d="M118.1,12.6v67.7H5.1V12.6c0-4.1,3.4-7.5,7.5-7.5h98C114.7,5.1,118.1,8.5,118.1,12.6z"/>
	<path class="st5" d="M118.1,12.6v67.7H61.6V5.1h49C114.7,5.1,118.1,8.5,118.1,12.6z"/>
	<path class="st1" d="M110.6,1.3h-98c-6.2,0-11.2,5-11.2,11.2v64l9.4,7.5h104.2l7-7.5v-64C121.8,6.4,116.8,1.3,110.6,1.3z
		 M114.3,76.5H8.8v-64c0-2.1,1.6-3.8,3.8-3.8h98c2.1,0,3.8,1.6,3.8,3.8V76.5z"/>
	<path class="st2" d="M121.8,12.6v64l-7,7.5H61.6v-7.5h52.8v-64c0-2.1-1.6-3.8-3.8-3.8h-49V1.3h49C116.8,1.3,121.8,6.4,121.8,12.6z"
		/>
	<path class="st3" d="M1.3,76.4v11.7c0,6.2,5,11.2,11.2,11.2h96.1c7.3,0,13.2-5.9,13.2-13.2v-9.7L1.3,76.4L1.3,76.4z"/>
	<path class="st1" d="M121.8,76.4v9.7c0,7.3-5.9,13.2-13.2,13.2H61.6V76.4H121.8z"/>
	<g class="st6">
		<path class="st7" d="M99.3,20.1c0,2.1-1.6,3.8-3.8,3.8H20.1c-2.1,0-3.8-1.6-3.8-3.8s1.6-3.8,3.8-3.8h75.5
			C97.7,16.3,99.3,18,99.3,20.1z"/>
		<path class="st7" d="M57.8,69.3H20.1c-2.1,0-3.8-1.7-3.8-3.8V35.1c0-2.1,1.7-3.7,3.8-3.7h37.8c2.1,0,3.8,1.7,3.8,3.7v30.5
			C61.6,67.7,59.9,69.3,57.8,69.3z"/>
	</g>
	<path class="st8" d="M95.6,23.8h-34v-7.5h34c2.1,0,3.8,1.6,3.8,3.8S97.7,23.8,95.6,23.8z"/>
	<rect x="73.1" y="57.3" class="st4" width="52.5" height="60.8"/>
	<path class="st3" d="M118.8,53.6H79.7l-10.3,7.5v53.2l12.7,7.5h39.1l8.2-7.5V61.1L118.8,53.6z M121.8,114.3h-45V61.1h45V114.3z"/>
	<rect x="99.3" y="57.3" class="st5" width="26.2" height="60.8"/>
	<polygon class="st1" points="129.3,61.1 129.3,114.3 121.1,121.8 99.3,121.8 99.3,114.3 121.8,114.3 121.8,61.1 99.3,61.1 
		99.3,53.6 118.8,53.6 	"/>
	<path class="st3" d="M118.1,46.8H80.6c-6.2,0-11.2,5-11.2,11.2v3h60v-3C129.3,51.9,124.3,46.8,118.1,46.8z"/>
	<path class="st1" d="M129.3,58.1v3h-30V46.8h18.8C124.3,46.8,129.3,51.9,129.3,58.1z"/>
	<path class="st3" d="M69.3,114.3v3.8c0,6.2,5,11.2,11.2,11.2h37.5c6.2,0,11.2-5,11.2-11.2v-3.8H69.3z"/>
	<path class="st1" d="M99.3,114.3h30v3.8c0,6.2-5,11.2-11.2,11.2H99.3V114.3z"/>
	<path class="st9" d="M99.6,35.3c0,2.1-1.6,3.8-3.8,3.8H73.3c-2.1,0-3.8-1.6-3.8-3.8s1.6-3.7,3.8-3.7h22.5
		C97.9,31.6,99.6,33.2,99.6,35.3z"/>
	<g class="st6">
		<path class="st7" d="M114.1,68.3c0,0.9-0.7,1.6-1.6,1.6H80.1c-0.9,0-1.6-0.7-1.6-1.6c0-0.9,0.7-1.6,1.6-1.6h32.4
			C113.4,66.7,114.1,67.4,114.1,68.3z"/>
		<path class="st7" d="M96.3,89.4H80.1c-0.9,0-1.6-0.7-1.6-1.6V74.7c0-0.9,0.7-1.6,1.6-1.6h16.2c0.9,0,1.6,0.7,1.6,1.6v13.1
			C97.9,88.7,97.1,89.4,96.3,89.4z"/>
	</g>
	<path class="st8" d="M114.2,69.9H99.3v-3.3h14.8c0.9,0,1.6,0.7,1.6,1.6S115.1,69.9,114.2,69.9z"/>
	<path class="st9" d="M115.8,74.7c0,0.9-0.7,1.6-1.6,1.6h-9.7c-0.9,0-1.6-0.7-1.6-1.6c0-0.9,0.7-1.6,1.6-1.6h9.7
		C115.1,73.1,115.8,73.8,115.8,74.7z"/>
	<path class="st10" d="M85.8,99.3h-6.7c-0.4,0-0.7-0.3-0.7-0.7v-5.4c0-0.4,0.3-0.7,0.7-0.7h6.7c0.4,0,0.7,0.3,0.7,0.7v5.4
		C86.5,99,86.2,99.3,85.8,99.3z"/>
	<path class="st10" d="M96.8,99.3h-6.7c-0.4,0-0.7-0.3-0.7-0.7v-5.4c0-0.4,0.3-0.7,0.7-0.7h6.7c0.4,0,0.7,0.3,0.7,0.7v5.4
		C97.5,99,97.2,99.3,96.8,99.3z"/>
	<path class="st10" d="M114.1,104.9c0,0.9-0.7,1.6-1.6,1.6H80.1c-0.9,0-1.6-0.7-1.6-1.6c0-0.9,0.7-1.6,1.6-1.6h32.4
		C113.4,103.2,114.1,104,114.1,104.9z"/>
	<path class="st9" d="M114.2,106.5H99.3v-3.3h14.8c0.9,0,1.6,0.7,1.6,1.6S115.1,106.5,114.2,106.5z"/>
	<path class="st8" d="M114.6,98H104c-0.6,0-1-0.7-1-1.6V83.3c0-0.9,0.5-1.6,1-1.6h10.5c0.6,0,1,0.7,1,1.6v13.1
		C115.6,97.2,115.2,98,114.6,98z"/>
	<circle class="st11" cx="99.6" cy="121.8" r="3.4"/>
</g>
<g>
	<path class="st12" d="M129.3,65.4c0,1.1,0,2.4,0,3.5c-0.5,8.8-2.7,16.8-6.1,24.2c-10.4,21.3-32.2,36.2-57.5,36.2
		c-35.4,0-63.9-28.8-63.9-63.9C1.7,30,30.2,1.5,65.7,1.5C100.8,1.5,129.3,30,129.3,65.4z"/>
	<circle class="st13" cx="65.4" cy="65.4" r="50.6"/>
	<circle class="st12" cx="65.4" cy="65.4" r="37.6"/>
	<circle class="st13" cx="65.4" cy="65.4" r="24.2"/>
	<circle class="st12" cx="65.4" cy="65.4" r="10.9"/>
	<path class="st14" d="M129.3,68.9c-0.5,8.8-2.7,16.8-6.1,24.2l-9.3-2.4l-2.7-9.1L64.6,69.1c-2.4-0.5-3.7-2.9-2.9-5.3
		c0.5-2.4,2.9-3.7,5.3-2.9l46.4,12.5l6.9-6.7L129.3,68.9z"/>
	<path class="st15" d="M103.8,26.8c-1.6-1.6-4.5-1.6-6.1,0L62.7,61.7c-1.6,1.6-1.6,4.5,0,6.1l0,0c1.6,1.6,4.5,1.6,6.1,0l34.9-34.9
		C105.4,31.3,105.4,28.4,103.8,26.8z"/>
	<polygon class="st16" points="113.6,16.9 97.9,32.4 94.4,18.3 110.2,2.5 	"/>
	<polygon class="st17" points="112.3,35.8 127.7,20.4 113.6,16.9 97.9,32.4 	"/>
</g>
<g class="st0">
	<rect x="27.2" y="88.6" class="st1" width="12.8" height="38.3"/>
	<rect x="5.9" y="78" class="st1" width="12.8" height="49"/>
	<rect x="69.8" y="61" class="st1" width="12.8" height="66"/>
	<rect x="48.5" y="43.9" class="st1" width="12.8" height="83"/>
	<rect x="112.3" y="97.1" class="st1" width="12.8" height="29.8"/>
	<rect x="91.1" y="52.4" class="st1" width="12.8" height="74.5"/>
	<path class="st8" d="M18.7,99.3H5.9c-1.2,0-2.1-1-2.1-2.1c0-1.2,1-2.1,2.1-2.1h12.8c1.2,0,2.1,1,2.1,2.1
		C20.8,98.3,19.8,99.3,18.7,99.3z"/>
	<path class="st8" d="M40,109.9H27.2c-1.2,0-2.1-1-2.1-2.1c0-1.2,1-2.1,2.1-2.1H40c1.2,0,2.1,1,2.1,2.1
		C42.1,109,41.1,109.9,40,109.9z"/>
	<path class="st5" d="M61.2,65.2H48.5c-1.2,0-2.1-1-2.1-2.1c0-1.2,1-2.1,2.1-2.1h12.8c1.2,0,2.1,1,2.1,2.1
		C63.4,64.3,62.4,65.2,61.2,65.2z"/>
	<path class="st8" d="M82.5,82.2H69.8c-1.2,0-2.1-1-2.1-2.1c0-1.2,1-2.1,2.1-2.1h12.8c1.2,0,2.1,1,2.1,2.1
		C84.7,81.3,83.7,82.2,82.5,82.2z"/>
	<path class="st5" d="M103.8,90.8H91.1c-1.2,0-2.1-1-2.1-2.1c0-1.2,1-2.1,2.1-2.1h12.8c1.2,0,2.1,1,2.1,2.1
		C106,89.8,105,90.8,103.8,90.8z"/>
	<path class="st8" d="M125.1,114.2h-12.8c-1.2,0-2.1-1-2.1-2.1c0-1.2,1-2.1,2.1-2.1h12.8c1.2,0,2.1,1,2.1,2.1
		C127.2,113.2,126.3,114.2,125.1,114.2z"/>
	<path class="st9" d="M127.2,129.1H3.8c-1.2,0-2.1-1-2.1-2.1c0-1.2,1-2.1,2.1-2.1h123.5c1.2,0,2.1,1,2.1,2.1
		C129.4,128.1,128.4,129.1,127.2,129.1z"/>
</g>
<g class="st0">
	<path class="st2" d="M123.6,17H7.4c-3.7,0-6.7,3-6.7,6.7v85c0,3.7,3,6.7,6.7,6.7h116.3c3.7,0,6.7-3,6.7-6.7v-85
		C130.3,20,127.3,17,123.6,17z M112.4,21.5h2.2c1.2,0,2.2,1,2.2,2.2s-1,2.2-2.2,2.2h-2.2c-1.2,0-2.2-1-2.2-2.2
		C110.2,22.5,111.2,21.5,112.4,21.5z M49.9,21.5h53.7c1.2,0,2.2,1,2.2,2.2s-1,2.2-2.2,2.2H49.9c-1.2,0-2.2-1-2.2-2.2
		S48.6,21.5,49.9,21.5z M38.7,21.5h2.2c1.2,0,2.2,1,2.2,2.2s-1,2.2-2.2,2.2h-2.2c-1.2,0-2.2-1-2.2-2.2S37.4,21.5,38.7,21.5z
		 M29.7,21.5H32c1.2,0,2.2,1,2.2,2.2s-1,2.2-2.2,2.2h-2.2c-1.2,0-2.2-1-2.2-2.2S28.5,21.5,29.7,21.5z M20.8,21.5
		c1.2,0,2.2,1,2.2,2.2s-1,2.2-2.2,2.2s-2.2-1-2.2-2.2C18.6,22.5,19.6,21.5,20.8,21.5z M14.1,21.5c1.2,0,2.2,1,2.2,2.2
		s-1,2.2-2.2,2.2s-2.2-1-2.2-2.2S12.8,21.5,14.1,21.5z M7.4,21.5c1.2,0,2.2,1,2.2,2.2s-1,2.2-2.2,2.2s-2.2-1-2.2-2.2
		C5.1,22.5,6.1,21.5,7.4,21.5z M125.9,43.8v64.8c0,1.2-1,2.2-2.2,2.2H65.5H7.4c-1.2,0-2.2-1-2.2-2.2V43.8V32.6c0-1.2,1-2.2,2.2-2.2
		h58.1h58.1c1.2,0,2.2,1,2.2,2.2V43.8z M123.6,25.9h-2.2c-1.2,0-2.2-1-2.2-2.2s1-2.2,2.2-2.2h2.2c1.2,0,2.2,1,2.2,2.2
		C125.9,24.9,124.9,25.9,123.6,25.9z"/>
	<path class="st18" d="M65.5,110.9h58.1c1.2,0,2.2-1,2.2-2.2V43.8H65.5V110.9z M99,55v-2.2c0-1.2,1-2.2,2.2-2.2h15.6
		c1.2,0,2.2,1,2.2,2.2V55v17.9c0,1.2-1,2.2-2.2,2.2h-15.6c-1.2,0-2.2-1-2.2-2.2V55z M72.2,55v-2.2c0-1.2,1-2.2,2.2-2.2h15.6
		c1.2,0,2.2,1,2.2,2.2V55v17.9c0,1.2-1,2.2-2.2,2.2H74.4c-1.2,0-2.2-1-2.2-2.2L72.2,55L72.2,55z M74.4,81.8h2.2h40.2
		c1.2,0,2.2,1,2.2,2.2v17.9c0,1.2-1,2.2-2.2,2.2H76.7h-2.2c-1.2,0-2.2-1-2.2-2.2V84.1C72.2,82.8,73.2,81.8,74.4,81.8z"/>
	<circle class="st19" cx="7.4" cy="23.7" r="2.2"/>
	<circle class="st20" cx="14.1" cy="23.7" r="2.2"/>
	<circle class="st21" cx="20.8" cy="23.7" r="2.2"/>
	<g class="st6">
		<path class="st22" d="M29.7,25.9H32c1.2,0,2.2-1,2.2-2.2s-1-2.2-2.2-2.2h-2.2c-1.2,0-2.2,1-2.2,2.2C27.5,24.9,28.5,25.9,29.7,25.9
			z"/>
		<path class="st22" d="M38.7,25.9h2.2c1.2,0,2.2-1,2.2-2.2s-1-2.2-2.2-2.2h-2.2c-1.2,0-2.2,1-2.2,2.2
			C36.4,24.9,37.4,25.9,38.7,25.9z"/>
		<path class="st22" d="M112.4,25.9h2.2c1.2,0,2.2-1,2.2-2.2s-1-2.2-2.2-2.2h-2.2c-1.2,0-2.2,1-2.2,2.2
			C110.2,24.9,111.2,25.9,112.4,25.9z"/>
		<path class="st22" d="M123.6,21.5h-2.2c-1.2,0-2.2,1-2.2,2.2s1,2.2,2.2,2.2h2.2c1.2,0,2.2-1,2.2-2.2S124.9,21.5,123.6,21.5z"/>
		<path class="st22" d="M49.9,25.9h53.7c1.2,0,2.2-1,2.2-2.2s-1-2.2-2.2-2.2H49.9c-1.2,0-2.2,1-2.2,2.2
			C47.6,24.9,48.6,25.9,49.9,25.9z"/>
	</g>
	<path class="st8" d="M123.6,30.4H65.5v13.4h60.4V32.6C125.9,31.4,124.9,30.4,123.6,30.4z M81.1,39.3h-8.9c-1.2,0-2.2-1-2.2-2.2
		s1-2.2,2.2-2.2h8.9c1.2,0,2.2,1,2.2,2.2S82.4,39.3,81.1,39.3z M99,39.3h-8.9c-1.2,0-2.2-1-2.2-2.2s1-2.2,2.2-2.2H99
		c1.2,0,2.2,1,2.2,2.2S100.3,39.3,99,39.3z M116.9,39.3H108c-1.2,0-2.2-1-2.2-2.2s1-2.2,2.2-2.2h8.9c1.2,0,2.2,1,2.2,2.2
		S118.2,39.3,116.9,39.3z"/>
	<g class="st6">
		<path class="st23" d="M81.1,34.9h-8.9c-1.2,0-2.2,1-2.2,2.2s1,2.2,2.2,2.2h8.9c1.2,0,2.2-1,2.2-2.2S82.4,34.9,81.1,34.9z"/>
		<path class="st23" d="M99,34.9h-8.9c-1.2,0-2.2,1-2.2,2.2s1,2.2,2.2,2.2H99c1.2,0,2.2-1,2.2-2.2S100.3,34.9,99,34.9z"/>
		<path class="st23" d="M116.9,34.9H108c-1.2,0-2.2,1-2.2,2.2s1,2.2,2.2,2.2h8.9c1.2,0,2.2-1,2.2-2.2S118.2,34.9,116.9,34.9z"/>
	</g>
	<g class="st6">
		<path class="st24" d="M74.4,75.1h15.6c1.2,0,2.2-1,2.2-2.2V55c0,1.2-1,2.2-2.2,2.2H74.4c-1.2,0-2.2-1-2.2-2.2v17.9
			C72.2,74.1,73.2,75.1,74.4,75.1z"/>
		<path class="st24" d="M101.3,75.1h15.6c1.2,0,2.2-1,2.2-2.2V55c0,1.2-1,2.2-2.2,2.2h-15.6c-1.2,0-2.2-1-2.2-2.2v17.9
			C99,74.1,100,75.1,101.3,75.1z"/>
	</g>
	<path class="st8" d="M74.4,57.2h15.6c1.2,0,2.2-1,2.2-2.2v-2.2c0-1.2-1-2.2-2.2-2.2H74.4c-1.2,0-2.2,1-2.2,2.2V55
		C72.2,56.2,73.2,57.2,74.4,57.2z"/>
	<path class="st5" d="M101.3,57.2h15.6c1.2,0,2.2-1,2.2-2.2v-2.2c0-1.2-1-2.2-2.2-2.2h-15.6c-1.2,0-2.2,1-2.2,2.2V55
		C99,56.2,100,57.2,101.3,57.2z"/>
	<path class="st25" d="M78.9,84.1v17.9c0,1.2-1,2.2-2.2,2.2h40.2c1.2,0,2.2-1,2.2-2.2V84.1c0-1.2-1-2.2-2.2-2.2H76.7
		C77.9,81.8,78.9,82.8,78.9,84.1z"/>
	<path class="st25" d="M74.4,104.2h2.2c1.2,0,2.2-1,2.2-2.2V84.1c0-1.2-1-2.2-2.2-2.2h-2.2c-1.2,0-2.2,1-2.2,2.2v17.9
		C72.2,103.2,73.2,104.2,74.4,104.2z"/>
	<path class="st1" d="M65.5,30.4H7.4c-1.2,0-2.2,1-2.2,2.2v11.2v64.8c0,1.2,1,2.2,2.2,2.2h58.1V43.8V30.4z M23,37.1h35.8
		c1.2,0,2.2,1,2.2,2.2s-1,2.2-2.2,2.2H23c-1.2,0-2.2-1-2.2-2.2S21.8,37.1,23,37.1z M11.8,37.1h2.2c1.2,0,2.2,1,2.2,2.2
		s-1,2.2-2.2,2.2h-2.2c-1.2,0-2.2-1-2.2-2.2S10.6,37.1,11.8,37.1z M34.2,50.5h-6.7c-1.2,0-2.2-1-2.2-2.2s1-2.2,2.2-2.2h6.7
		c1.2,0,2.2,1,2.2,2.2C36.4,49.5,35.4,50.5,34.2,50.5z M36.4,57.2c0,1.2-1,2.2-2.2,2.2h-6.7c-1.2,0-2.2-1-2.2-2.2s1-2.2,2.2-2.2h6.7
		C35.4,55,36.4,56,36.4,57.2z M11.8,72.9h2.2c1.2,0,2.2,1,2.2,2.2s-1,2.2-2.2,2.2h-2.2c-1.2,0-2.2-1-2.2-2.2S10.6,72.9,11.8,72.9z
		 M9.6,66.2c0-1.2,1-2.2,2.2-2.2h2.2c1.2,0,2.2,1,2.2,2.2s-1,2.2-2.2,2.2h-2.2C10.6,68.4,9.6,67.4,9.6,66.2z M16.3,81.8h2.2
		c1.2,0,2.2,1,2.2,2.2s-1,2.2-2.2,2.2h-2.2c-1.2,0-2.2-1-2.2-2.2S15.1,81.8,16.3,81.8z M18.6,59.5h-2.2c-1.2,0-2.2-1-2.2-2.2
		s1-2.2,2.2-2.2h2.2c1.2,0,2.2,1,2.2,2.2S19.8,59.5,18.6,59.5z M18.6,50.5h-2.2c-1.2,0-2.2-1-2.2-2.2s1-2.2,2.2-2.2h2.2
		c1.2,0,2.2,1,2.2,2.2C20.8,49.5,19.8,50.5,18.6,50.5z M14.1,104.2h-2.2c-1.2,0-2.2-1-2.2-2.2s1-2.2,2.2-2.2h2.2
		c1.2,0,2.2,1,2.2,2.2C16.3,103.2,15.3,104.2,14.1,104.2z M18.6,95.2h-2.2c-1.2,0-2.2-1-2.2-2.2s1-2.2,2.2-2.2h2.2
		c1.2,0,2.2,1,2.2,2.2S19.8,95.2,18.6,95.2z M58.8,104.2H23c-1.2,0-2.2-1-2.2-2.2s1-2.2,2.2-2.2h35.8c1.2,0,2.2,1,2.2,2.2
		S60,104.2,58.8,104.2z M27.5,90.8h6.7c1.2,0,2.2,1,2.2,2.2s-1,2.2-2.2,2.2h-6.7c-1.2,0-2.2-1-2.2-2.2S26.3,90.8,27.5,90.8z
		 M25.3,84.1c0-1.2,1-2.2,2.2-2.2h6.7c1.2,0,2.2,1,2.2,2.2s-1,2.2-2.2,2.2h-6.7C26.3,86.3,25.3,85.3,25.3,84.1z M58.8,95.2H43.1
		c-1.2,0-2.2-1-2.2-2.2s1-2.2,2.2-2.2h15.6c1.2,0,2.2,1,2.2,2.2S60,95.2,58.8,95.2z M58.8,86.3H43.1c-1.2,0-2.2-1-2.2-2.2
		s1-2.2,2.2-2.2h15.6c1.2,0,2.2,1,2.2,2.2S60,86.3,58.8,86.3z M58.8,77.3H23c-1.2,0-2.2-1-2.2-2.2s1-2.2,2.2-2.2h35.8
		c1.2,0,2.2,1,2.2,2.2S60,77.3,58.8,77.3z M58.8,68.4H23c-1.2,0-2.2-1-2.2-2.2s1-2.2,2.2-2.2h35.8c1.2,0,2.2,1,2.2,2.2
		S60,68.4,58.8,68.4z M58.8,59.5H43.1c-1.2,0-2.2-1-2.2-2.2s1-2.2,2.2-2.2h15.6c1.2,0,2.2,1,2.2,2.2S60,59.5,58.8,59.5z M58.8,50.5
		H43.1c-1.2,0-2.2-1-2.2-2.2s1-2.2,2.2-2.2h15.6c1.2,0,2.2,1,2.2,2.2S60,50.5,58.8,50.5z"/>
	<path class="st9" d="M23,41.6h35.8c1.2,0,2.2-1,2.2-2.2s-1-2.2-2.2-2.2H23c-1.2,0-2.2,1-2.2,2.2S21.8,41.6,23,41.6z"/>
	<g class="st6">
		<path class="st17" d="M34.2,46h-6.7c-1.2,0-2.2,1-2.2,2.2s1,2.2,2.2,2.2h6.7c1.2,0,2.2-1,2.2-2.2C36.4,47,35.4,46,34.2,46z"/>
		<path class="st17" d="M34.2,55h-6.7c-1.2,0-2.2,1-2.2,2.2s1,2.2,2.2,2.2h6.7c1.2,0,2.2-1,2.2-2.2S35.4,55,34.2,55z"/>
	</g>
	<path class="st9" d="M58.8,63.9H23c-1.2,0-2.2,1-2.2,2.2s1,2.2,2.2,2.2h35.8c1.2,0,2.2-1,2.2-2.2S60,63.9,58.8,63.9z"/>
	<g class="st6">
		<path class="st26" d="M58.8,72.9H23c-1.2,0-2.2,1-2.2,2.2s1,2.2,2.2,2.2h35.8c1.2,0,2.2-1,2.2-2.2S60,72.9,58.8,72.9z"/>
		<path class="st26" d="M58.8,46H43.1c-1.2,0-2.2,1-2.2,2.2s1,2.2,2.2,2.2h15.6c1.2,0,2.2-1,2.2-2.2C61,47,60,46,58.8,46z"/>
		<path class="st26" d="M58.8,55H43.1c-1.2,0-2.2,1-2.2,2.2s1,2.2,2.2,2.2h15.6c1.2,0,2.2-1,2.2-2.2S60,55,58.8,55z"/>
		<path class="st26" d="M58.8,81.8H43.1c-1.2,0-2.2,1-2.2,2.2s1,2.2,2.2,2.2h15.6c1.2,0,2.2-1,2.2-2.2S60,81.8,58.8,81.8z"/>
		<path class="st26" d="M58.8,90.8H43.1c-1.2,0-2.2,1-2.2,2.2s1,2.2,2.2,2.2h15.6c1.2,0,2.2-1,2.2-2.2S60,90.8,58.8,90.8z"/>
	</g>
	<g class="st6">
		<path class="st17" d="M27.5,86.3h6.7c1.2,0,2.2-1,2.2-2.2s-1-2.2-2.2-2.2h-6.7c-1.2,0-2.2,1-2.2,2.2S26.3,86.3,27.5,86.3z"/>
		<path class="st17" d="M27.5,95.2h6.7c1.2,0,2.2-1,2.2-2.2s-1-2.2-2.2-2.2h-6.7c-1.2,0-2.2,1-2.2,2.2S26.3,95.2,27.5,95.2z"/>
	</g>
	<path class="st9" d="M58.8,99.7H23c-1.2,0-2.2,1-2.2,2.2s1,2.2,2.2,2.2h35.8c1.2,0,2.2-1,2.2-2.2C61,100.7,60,99.7,58.8,99.7z"/>
	<g class="st6">
		<path class="st12" d="M11.8,41.6h2.2c1.2,0,2.2-1,2.2-2.2s-1-2.2-2.2-2.2h-2.2c-1.2,0-2.2,1-2.2,2.2S10.6,41.6,11.8,41.6z"/>
		<path class="st12" d="M18.6,46h-2.2c-1.2,0-2.2,1-2.2,2.2s1,2.2,2.2,2.2h2.2c1.2,0,2.2-1,2.2-2.2C20.8,47,19.8,46,18.6,46z"/>
		<path class="st12" d="M18.6,55h-2.2c-1.2,0-2.2,1-2.2,2.2s1,2.2,2.2,2.2h2.2c1.2,0,2.2-1,2.2-2.2S19.8,55,18.6,55z"/>
		<path class="st12" d="M11.8,68.4h2.2c1.2,0,2.2-1,2.2-2.2s-1-2.2-2.2-2.2h-2.2c-1.2,0-2.2,1-2.2,2.2S10.6,68.4,11.8,68.4z"/>
		<path class="st12" d="M11.8,77.3h2.2c1.2,0,2.2-1,2.2-2.2s-1-2.2-2.2-2.2h-2.2c-1.2,0-2.2,1-2.2,2.2S10.6,77.3,11.8,77.3z"/>
		<path class="st12" d="M16.3,86.3h2.2c1.2,0,2.2-1,2.2-2.2s-1-2.2-2.2-2.2h-2.2c-1.2,0-2.2,1-2.2,2.2S15.1,86.3,16.3,86.3z"/>
		<path class="st12" d="M18.6,90.8h-2.2c-1.2,0-2.2,1-2.2,2.2s1,2.2,2.2,2.2h2.2c1.2,0,2.2-1,2.2-2.2S19.8,90.8,18.6,90.8z"/>
		<path class="st12" d="M14.1,99.7h-2.2c-1.2,0-2.2,1-2.2,2.2s1,2.2,2.2,2.2h2.2c1.2,0,2.2-1,2.2-2.2
			C16.3,100.7,15.3,99.7,14.1,99.7z"/>
	</g>
</g>
<g class="st0">
	<path class="st1" d="M65.4,1.5C30.1,1.5,1.5,30.1,1.5,65.4s28.6,63.9,63.9,63.9s63.9-28.6,63.9-63.9S100.7,1.5,65.4,1.5z
		 M118.5,76.2C118.5,76.3,118.5,76.3,118.5,76.2c-0.2,0.9-0.4,1.8-0.6,2.6c0,0,0,0.1,0,0.1c-0.2,0.8-0.5,1.6-0.7,2.5
		c-0.1,0.4-0.3,0.8-0.4,1.3c-0.1,0.4-0.2,0.7-0.4,1.1c-0.2,0.5-0.3,0.9-0.5,1.4c-0.1,0.4-0.3,0.8-0.5,1.2c-0.2,0.4-0.3,0.8-0.5,1.2
		c-0.2,0.4-0.4,0.8-0.6,1.2c-0.4,0.8-0.8,1.6-1.2,2.3c-0.8,1.5-1.7,3-2.7,4.4c-0.8,1.1-1.6,2.2-2.4,3.3c-0.3,0.3-0.5,0.7-0.8,1
		c-0.3,0.3-0.5,0.7-0.8,1c-0.6,0.7-1.1,1.3-1.7,1.9c-0.2,0.3-0.5,0.5-0.7,0.8c-0.1,0.1-0.1,0.2-0.2,0.2s-0.2,0.1-0.2,0.2
		c-9.8,9.7-23.2,15.7-38.1,15.7s-28.3-6-38.1-15.7c-0.1-0.1-0.2-0.1-0.2-0.2s-0.1-0.2-0.2-0.3c-9.7-9.8-15.7-23.2-15.7-38
		s6-28.3,15.7-38.1c0.1-0.1,0.1-0.2,0.2-0.2s0.2-0.1,0.2-0.2c9.8-9.7,23.2-15.7,38.1-15.7c13.1,0,25.1,4.7,34.5,12.5
		c0.3,0.3,0.7,0.5,1,0.8c0.3,0.3,0.6,0.6,1,0.9c0.5,0.5,1.1,1,1.6,1.5c0.1,0.1,0.2,0.1,0.3,0.2s0.1,0.2,0.2,0.2
		c0.2,0.2,0.4,0.4,0.6,0.6c1.3,1.3,2.5,2.8,3.7,4.2c0.3,0.3,0.5,0.7,0.8,1c0.5,0.6,0.9,1.3,1.4,2c0,0.1,0.1,0.1,0.1,0.2
		c1.4,2.1,2.7,4.4,3.8,6.7c0.2,0.4,0.4,0.8,0.6,1.2c0.6,1.2,1.1,2.5,1.5,3.8c0.1,0.4,0.2,0.7,0.4,1.1c0.4,1.2,0.8,2.5,1.1,3.8
		c0.2,0.9,0.4,1.7,0.6,2.6c0.3,1.3,0.5,2.6,0.7,4c0.3,2.2,0.4,4.5,0.4,6.8c0,2.3-0.2,4.6-0.4,6.9C119,73.6,118.8,74.9,118.5,76.2z"
		/>
	<path class="st5" d="M119.2,58.6c-0.2-1.3-0.4-2.7-0.7-4c-0.2-0.9-0.4-1.8-0.6-2.6c-0.3-1.3-0.7-2.6-1.1-3.8
		c-0.1-0.4-0.2-0.7-0.4-1.1c-0.5-1.3-1-2.5-1.5-3.8c-0.2-0.4-0.4-0.8-0.6-1.2c-1.1-2.3-2.4-4.6-3.8-6.7c0-0.1-0.1-0.1-0.1-0.2
		c-0.5-0.7-0.9-1.3-1.4-2c-0.2-0.4-0.5-0.7-0.8-1c-1.1-1.5-2.4-2.9-3.7-4.2c-0.3-0.4-0.7-0.7-1.1-1.1c-0.5-0.5-1-1-1.6-1.5
		c-0.3-0.3-0.6-0.6-1-0.9c-0.3-0.3-0.7-0.6-1-0.8C90.6,16,78.6,11.4,65.5,11.4c-29.9,0-54,24.2-54,54c0,29.8,24.2,54,54,54
		c15.4,0,29.3-6.4,39.1-16.8c0.6-0.6,1.2-1.3,1.7-1.9c0.3-0.3,0.6-0.6,0.8-1c0.3-0.3,0.5-0.7,0.8-1c0.8-1.1,1.6-2.2,2.4-3.3
		c1-1.4,1.9-2.9,2.7-4.4c0.4-0.8,0.8-1.5,1.2-2.3c0.2-0.4,0.4-0.8,0.6-1.2c0.2-0.4,0.4-0.8,0.5-1.2c0.2-0.4,0.3-0.8,0.5-1.2
		c0.2-0.5,0.4-0.9,0.5-1.4c0.1-0.4,0.2-0.7,0.4-1.1c0.2-0.4,0.3-0.8,0.4-1.3c0.2-0.8,0.5-1.6,0.7-2.5c0,0,0-0.1,0-0.1
		c0.2-0.8,0.4-1.7,0.6-2.5c0,0,0,0,0-0.1c0.3-1.3,0.5-2.6,0.7-3.9c0.3-2.2,0.4-4.5,0.4-6.9C119.6,63.1,119.4,60.8,119.2,58.6z
		 M61.7,72.5c-4.2-2-6.1-7-4.1-11.2c1.2-2.5,3.5-4.2,6-4.7l15.3-21.4l-6.4,25.5c1.3,2.3,1.5,5.1,0.3,7.7c-1.3,2.9-4.1,4.7-7.1,4.9
		c-0.3,0-0.6,0-0.9,0C63.7,73.2,62.7,73,61.7,72.5z"/>
	<path class="st8" d="M47.6,32.3v44H85v-44H47.6z M64.8,73.3c-1-0.1-2.1-0.3-3.1-0.8c-4.2-2-6.1-7-4.1-11.2c1.2-2.5,3.5-4.2,6-4.7
		l15.3-21.4l-6.4,25.5c1.3,2.3,1.5,5.1,0.3,7.7c-1.3,2.9-4.1,4.7-7.1,4.9C65.4,73.3,65.1,73.3,64.8,73.3z"/>
	<path class="st18" d="M113.1,62.2c-0.7-10.7-5-20.5-11.6-28.1l-4.6-4.6c-7.6-6.6-17.4-10.9-28.1-11.6h-6.5c0,0-0.1,0-0.1,0
		c-10.7,0.8-20.3,5-27.9,11.6l-0.1,0.1l-4.5,4.5c0,0,0,0-0.1,0.1c-6.6,7.6-10.9,17.3-11.6,28v6.5c0.7,10.7,5,20.4,11.6,28
		c0,0,0,0,0.1,0.1l4.5,4.5l0.1,0.1c1.5,1.3,3,2.4,4.5,3.5c0,0,0.1,0.1,0.1,0.1c4-10.4,13.9-17.8,25.5-18.2c0.3,0,0.7,0,1,0
		c0.4,0,0.8,0,1.1,0c11.7,0.4,21.6,7.8,25.6,18.2c0,0,0,0,0,0.1c1.6-1.1,3.2-2.3,4.7-3.6l4.6-4.6c6.7-7.6,10.9-17.4,11.7-28.1
		L113.1,62.2z M72.9,68.4c-1.4,2.9-4.2,4.7-7.2,4.9c-0.3,0-0.6,0-0.9,0c-1-0.1-2.1-0.3-3.1-0.8c-4.2-2-6.1-7-4.1-11.2
		c1.2-2.5,3.5-4.2,6-4.7l9,4.2C73.9,63,74.1,65.8,72.9,68.4z"/>
	<path class="st9" d="M100.9,65.4c0-1.8,1.5-3.3,3.2-3.3h8.8c-0.7-10.7-5-20.5-11.6-28.1l-6.2,6.2c-0.6,0.6-1.5,1-2.3,1
		s-1.7-0.3-2.3-1c-1.3-1.3-1.3-3.3,0-4.6l6.2-6.2c-7.6-6.6-17.4-10.9-28.1-11.6v8.8c0,1.8-1.5,3.2-3.2,3.2c-1.8,0-3.2-1.5-3.2-3.2
		v-8.8c-10.7,0.7-20.4,5-28.1,11.6l0.1,0.1l6.1,6.1c1.3,1.3,1.3,3.3,0,4.6c-0.6,0.6-1.5,1-2.3,1c-0.8,0-1.7-0.3-2.3-1l-6.1-6.1
		l-0.1-0.1c-6.6,7.6-10.9,17.3-11.6,28.1h8.8c1.8,0,3.2,1.5,3.2,3.3c0,1.8-1.5,3.2-3.2,3.2h-8.8c0.7,10.7,5,20.4,11.6,28.1l0.1-0.1
		l6.1-6.1c1.3-1.3,3.3-1.3,4.6,0c1.3,1.3,1.3,3.3,0,4.6l-6.1,6.1l-0.1,0.1c1.5,1.3,3,2.5,4.6,3.6c0,0,0,0,0-0.1
		c4-10.3,13.9-17.8,25.6-18.2c0.3,0,0.7,0,1,0c0.4,0,0.8,0,1.1,0c11.7,0.5,21.5,7.9,25.5,18.2c0,0,0.1,0,0.1-0.1
		c1.6-1.1,3.1-2.3,4.5-3.5l-6.2-6.2c-1.3-1.3-1.3-3.3,0-4.6c1.3-1.3,3.3-1.3,4.6,0l6.2,6.2c6.7-7.6,10.9-17.4,11.6-28.1h-8.8
		C102.4,68.7,100.9,67.2,100.9,65.4z"/>
	<path class="st8" d="M69.4,72.1c-2.2,1.4-5,1.9-7.6,0.9c-3-1.1-5-3.7-5.5-6.6c0-0.3-0.1-0.6-0.1-0.9c0-1,0.1-2.1,0.5-3.2
		c1.6-4.4,6.5-6.6,10.8-5c2.6,1,4.5,3.1,5.2,5.6l22.6,13.5L69.4,72.1z"/>
</g>
<g class="st0">
	<path class="st8" d="M65.4,51.8c6.7-5.4,15.3-8.6,24.7-8.6c5,0,9.8,1,14.4,2.7c0.2-1.7,0.4-3.6,0.4-5.2c0-21.7-17.5-39.3-39.3-39.3
		S26.3,19,26.3,40.8c0,1.9,0.2,3.6,0.4,5.2c4.4-1.7,9.2-2.7,14.4-2.7C50.2,43.3,58.7,46.6,65.4,51.8z"/>
	<path class="st9" d="M50.6,82.5c0-1.9,0.2-3.6,0.4-5.2c-13-5-22.6-16.9-24.7-31.3C11.9,51.8,1.5,65.8,1.5,82.5
		c0,21.7,17.5,39.3,39.3,39.3c9.4,0,17.8-3.3,24.7-8.6C56.4,105.9,50.6,94.9,50.6,82.5z"/>
	<path class="st5" d="M104.3,46c-1.9,14.4-11.5,26.1-24.7,31.3c0.2,1.7,0.4,3.6,0.4,5.2c0,12.3-5.8,23.4-14.8,30.7
		c6.7,5.4,15.3,8.6,24.7,8.6c21.7,0,39.3-17.5,39.3-39.3C129.3,65.8,118.9,51.8,104.3,46z"/>
	<path class="st1" d="M79.8,77.1c-4.6,1.7-9.4,2.7-14.4,2.7c-5.2,0-10-1-14.4-2.7c1.5-10.2,6.7-19.2,14.4-25.3
		C73.1,58.1,78.4,67.1,79.8,77.1z"/>
	<path class="st5" d="M79.8,77.3c13-5,22.6-16.9,24.7-31.3c-4.4-1.7-9.2-2.7-14.4-2.7c-9.2,0-17.8,3.3-24.7,8.6
		C73.1,58.1,78.4,67.1,79.8,77.3z"/>
	<path class="st27" d="M79.8,77.3c13-5,22.6-16.9,24.7-31.3c-4.4-1.7-9.2-2.7-14.4-2.7c-9.2,0-17.8,3.3-24.7,8.6
		C73.1,58.1,78.4,67.1,79.8,77.3z"/>
	<g class="st6">
		<path class="st12" d="M65.4,51.8c-6.7-5.4-15.3-8.6-24.7-8.6c-5,0-9.8,1-14.4,2.7C28.2,60.4,37.8,72.1,51,77.3
			C52.5,67.1,57.7,58.1,65.4,51.8z"/>
		<path class="st28" d="M65.4,51.8c-6.7-5.4-15.3-8.6-24.7-8.6c-5,0-9.8,1-14.4,2.7C28.2,60.4,37.8,72.1,51,77.3
			C52.5,67.1,57.7,58.1,65.4,51.8z"/>
	</g>
	<g class="st6">
		<path class="st23" d="M79.8,82.5c0-1.9-0.2-3.6-0.4-5.2C75,79,70.2,80,65,80c-5,0-9.8-1-14.4-2.7c-0.2,1.7-0.4,3.6-0.4,5.2
			c0,12.3,5.8,23.4,14.8,30.7C74,105.9,79.8,94.9,79.8,82.5z"/>
		<path class="st29" d="M80.2,82.5c0-1.9-0.2-3.6-0.4-5.2C75.4,79,70.6,80,65.4,80c-5,0-9.8-1-14.4-2.7c-0.2,1.7-0.4,3.6-0.4,5.2
			c0,12.3,5.8,23.4,14.8,30.7C74.4,105.9,80.2,94.9,80.2,82.5z"/>
	</g>
</g>
</svg>
